{
    "asset": {
        "version": "2.0"
    },
    "scene": 0,
    "scenes": [
        {
            "nodes": [
                0
            ]
        }
    ],
    "nodes": [
        {
            "children": [
                1,
                2
            ],
            "matrix": [
                0.001,
                0,
                0,
                0,
                0,
                0.001,
                0,
                0,
                0,
                0,
                0.001,
                0,
                0,
                0,
                0,
                1
            ],
            "name": "4P",
            "extras": {
                "Dtk_PrototypeID": 1
            }
        },
        {
            "mesh": 0,
            "name": "Mesh"
        },
        {
            "name": "Mesh"
        }
    ],
    "meshes": [
        {
            "primitives": [
                {
                    "attributes": {
                        "NORMAL": 2,
                        "POSITION": 1
                    },
                    "indices": 0,
                    "material": 0,
                    "mode": 4
                },
                {
                    "attributes": {
                        "NORMAL": 2,
                        "POSITION": 1
                    },
                    "indices": 3,
                    "material": 1,
                    "mode": 4
                }
            ]
        }
    ],
    "accessors": [
        {
            "bufferView": 0,
            "byteOffset": 0,
            "componentType": 5123,
            "count": 1068,
            "max": [
                431
            ],
            "min": [
                0
            ],
            "type": "SCALAR"
        },
        {
            "bufferView": 1,
            "byteOffset": 0,
            "componentType": 5126,
            "count": 2540,
            "max": [
                12,
                15,
                0
            ],
            "min": [
                0,
                0,
                -10
            ],
            "type": "VEC3"
        },
        {
            "bufferView": 1,
            "byteOffset": 30480,
            "componentType": 5126,
            "count": 2540,
            "max": [
                1,
                1,
                1
            ],
            "min": [
                -1,
                -1,
                -1
            ],
            "type": "VEC3"
        },
        {
            "bufferView": 0,
            "byteOffset": 2136,
            "componentType": 5123,
            "count": 9360,
            "max": [
                2539
            ],
            "min": [
                432
            ],
            "type": "SCALAR"
        }
    ],
    "materials": [
        {
            "pbrMetallicRoughness": {
                "baseColorFactor": [
                    0.3098039216,
                    0.3098039216,
                    0.3098039216,
                    1
                ],
                "metallicFactor": 0,
                "roughnessFactor": 1
            },
            "doubleSided": true,
            "alphaMode": "OPAQUE",
            "extras": {
                "Dtk_ColorId": 1
            }
        },
        {
            "pbrMetallicRoughness": {
                "baseColorFactor": [
                    0.9647058824,
                    1,
                    0.3411764706,
                    1
                ],
                "metallicFactor": 0,
                "roughnessFactor": 1
            },
            "doubleSided": true,
            "alphaMode": "OPAQUE",
            "extras": {
                "Dtk_ColorId": 4
            }
        }
    ],
    "bufferViews": [
        {
            "buffer": 0,
            "byteOffset": 0,
            "byteLength": 20856,
            "target": 34963
        },
        {
            "buffer": 0,
            "byteOffset": 20856,
            "byteLength": 60960,
            "byteStride": 12,
            "target": 34962
        }
    ],
    "buffers": [
        {
            "byteLength": 81816,
            "uri": "4P.bin"
        }
    ]
}