{
    "asset": {
        "version": "2.0"
    },
    "scene": 0,
    "scenes": [
        {
            "nodes": [
                0
            ]
        }
    ],
    "nodes": [
        {
            "children": [
                1,
                2,
                3,
                4,
                5,
                6,
                7
            ],
            "matrix": [
                0.001,
                0,
                0,
                0,
                0,
                0.001,
                0,
                0,
                0,
                0,
                0.001,
                0,
                0,
                0,
                0,
                1
            ],
            "name": "DC Power Jack 5.5mm x 2.1mm",
            "extras": {
                "Dtk_PrototypeID": 1
            }
        },
        {
            "mesh": 0,
            "name": "Mesh"
        },
        {
            "mesh": 1,
            "name": "Mesh"
        },
        {
            "mesh": 2,
            "name": "Mesh"
        },
        {
            "mesh": 3,
            "name": "Mesh"
        },
        {
            "mesh": 4,
            "name": "Mesh"
        },
        {
            "mesh": 5,
            "name": "Mesh"
        },
        {
            "name": "Mesh"
        }
    ],
    "meshes": [
        {
            "primitives": [
                {
                    "attributes": {
                        "NORMAL": 2,
                        "POSITION": 1
                    },
                    "indices": 0,
                    "material": 0,
                    "mode": 4
                }
            ]
        },
        {
            "primitives": [
                {
                    "attributes": {
                        "NORMAL": 5,
                        "POSITION": 4
                    },
                    "indices": 3,
                    "material": 1,
                    "mode": 4
                }
            ]
        },
        {
            "primitives": [
                {
                    "attributes": {
                        "NORMAL": 8,
                        "POSITION": 7
                    },
                    "indices": 6,
                    "material": 2,
                    "mode": 4
                }
            ]
        },
        {
            "primitives": [
                {
                    "attributes": {
                        "NORMAL": 11,
                        "POSITION": 10
                    },
                    "indices": 9,
                    "material": 0,
                    "mode": 4
                }
            ]
        },
        {
            "primitives": [
                {
                    "attributes": {
                        "NORMAL": 14,
                        "POSITION": 13
                    },
                    "indices": 12,
                    "material": 1,
                    "mode": 4
                }
            ]
        },
        {
            "primitives": [
                {
                    "attributes": {
                        "NORMAL": 17,
                        "POSITION": 16
                    },
                    "indices": 15,
                    "material": 3,
                    "mode": 4
                },
                {
                    "attributes": {
                        "NORMAL": 17,
                        "POSITION": 16
                    },
                    "indices": 18,
                    "material": 0,
                    "mode": 4
                }
            ]
        }
    ],
    "accessors": [
        {
            "bufferView": 0,
            "byteOffset": 0,
            "componentType": 5123,
            "count": 1158,
            "max": [
                425
            ],
            "min": [
                0
            ],
            "type": "SCALAR"
        },
        {
            "bufferView": 1,
            "byteOffset": 0,
            "componentType": 5126,
            "count": 426,
            "max": [
                4.489999771,
                3.937948465,
                2.168404345e-18
            ],
            "min": [
                -4.489999771,
                -6.28000021,
                -9
            ],
            "type": "VEC3"
        },
        {
            "bufferView": 1,
            "byteOffset": 5112,
            "componentType": 5126,
            "count": 426,
            "max": [
                1,
                1,
                1
            ],
            "min": [
                -1,
                -1,
                -1
            ],
            "type": "VEC3"
        },
        {
            "bufferView": 2,
            "byteOffset": 0,
            "componentType": 5123,
            "count": 1764,
            "max": [
                655
            ],
            "min": [
                0
            ],
            "type": "SCALAR"
        },
        {
            "bufferView": 3,
            "byteOffset": 0,
            "componentType": 5126,
            "count": 656,
            "max": [
                5.28000021,
                -1.486315846,
                2.481227398
            ],
            "min": [
                -2.5,
                -9.999976158,
                -9
            ],
            "type": "VEC3"
        },
        {
            "bufferView": 3,
            "byteOffset": 7872,
            "componentType": 5126,
            "count": 656,
            "max": [
                1,
                1,
                1
            ],
            "min": [
                -1,
                -1,
                -1
            ],
            "type": "VEC3"
        },
        {
            "bufferView": 4,
            "byteOffset": 0,
            "componentType": 5123,
            "count": 9498,
            "max": [
                2068
            ],
            "min": [
                0
            ],
            "type": "SCALAR"
        },
        {
            "bufferView": 5,
            "byteOffset": 0,
            "componentType": 5126,
            "count": 2069,
            "max": [
                1.245496869,
                1.248873711,
                2.083180666
            ],
            "min": [
                -1.25,
                -1.248873711,
                -11.14495182
            ],
            "type": "VEC3"
        },
        {
            "bufferView": 5,
            "byteOffset": 24828,
            "componentType": 5126,
            "count": 2069,
            "max": [
                1,
                1,
                1
            ],
            "min": [
                -1,
                -1,
                -1
            ],
            "type": "VEC3"
        },
        {
            "bufferView": 6,
            "byteOffset": 0,
            "componentType": 5123,
            "count": 6282,
            "max": [
                1655
            ],
            "min": [
                0
            ],
            "type": "SCALAR"
        },
        {
            "bufferView": 7,
            "byteOffset": 0,
            "componentType": 5126,
            "count": 1656,
            "max": [
                3.706458092,
                3.703467369,
                -5.409999847
            ],
            "min": [
                -3.706458092,
                -6.28000021,
                -11.18999958
            ],
            "type": "VEC3"
        },
        {
            "bufferView": 7,
            "byteOffset": 19872,
            "componentType": 5126,
            "count": 1656,
            "max": [
                1,
                1,
                1
            ],
            "min": [
                -1,
                -1,
                -1
            ],
            "type": "VEC3"
        },
        {
            "bufferView": 8,
            "byteOffset": 0,
            "componentType": 5123,
            "count": 2928,
            "max": [
                1015
            ],
            "min": [
                0
            ],
            "type": "SCALAR"
        },
        {
            "bufferView": 9,
            "byteOffset": 0,
            "componentType": 5126,
            "count": 1016,
            "max": [
                3.785000086,
                2.124910116,
                -9
            ],
            "min": [
                -2.124685049,
                -9.999991417,
                -10.48999977
            ],
            "type": "VEC3"
        },
        {
            "bufferView": 9,
            "byteOffset": 12192,
            "componentType": 5126,
            "count": 1016,
            "max": [
                1,
                1,
                1
            ],
            "min": [
                -1,
                -1,
                -1
            ],
            "type": "VEC3"
        },
        {
            "bufferView": 10,
            "byteOffset": 0,
            "componentType": 5123,
            "count": 2739,
            "max": [
                899
            ],
            "min": [
                0
            ],
            "type": "SCALAR"
        },
        {
            "bufferView": 11,
            "byteOffset": 0,
            "componentType": 5126,
            "count": 900,
            "max": [
                4.489999771,
                4.380000114,
                3.430000067
            ],
            "min": [
                -4.489999771,
                -6.28000021,
                -6.52256027e-16
            ],
            "type": "VEC3"
        },
        {
            "bufferView": 11,
            "byteOffset": 10800,
            "componentType": 5126,
            "count": 900,
            "max": [
                1,
                1,
                1
            ],
            "min": [
                -1,
                -0.9998477101,
                -1
            ],
            "type": "VEC3"
        },
        {
            "bufferView": 10,
            "byteOffset": 5478,
            "componentType": 5123,
            "count": 561,
            "max": [
                805
            ],
            "min": [
                418
            ],
            "type": "SCALAR"
        }
    ],
    "materials": [
        {
            "pbrMetallicRoughness": {
                "baseColorFactor": [
                    0.1019607843,
                    0.1019607843,
                    0.1019607843,
                    1
                ],
                "metallicFactor": 0,
                "roughnessFactor": 1
            },
            "doubleSided": true,
            "alphaMode": "OPAQUE",
            "extras": {
                "Dtk_ColorId": 3
            }
        },
        {
            "pbrMetallicRoughness": {
                "baseColorFactor": [
                    0.831372549,
                    0.8392156863,
                    0.831372549,
                    1
                ],
                "metallicFactor": 0,
                "roughnessFactor": 1
            },
            "doubleSided": true,
            "alphaMode": "OPAQUE",
            "extras": {
                "Dtk_ColorId": 7
            }
        },
        {
            "pbrMetallicRoughness": {
                "baseColorFactor": [
                    0.568627451,
                    0.5490196078,
                    0.5098039216,
                    1
                ],
                "metallicFactor": 0,
                "roughnessFactor": 1
            },
            "doubleSided": true,
            "alphaMode": "OPAQUE",
            "extras": {
                "Dtk_ColorId": 5
            }
        },
        {
            "pbrMetallicRoughness": {
                "baseColorFactor": [
                    0.1098039216,
                    0.1098039216,
                    0.1098039216,
                    1
                ],
                "metallicFactor": 0,
                "roughnessFactor": 1
            },
            "doubleSided": true,
            "alphaMode": "OPAQUE",
            "extras": {
                "Dtk_ColorId": 6
            }
        }
    ],
    "bufferViews": [
        {
            "buffer": 0,
            "byteOffset": 0,
            "byteLength": 2316,
            "target": 34963
        },
        {
            "buffer": 0,
            "byteOffset": 2316,
            "byteLength": 10224,
            "byteStride": 12,
            "target": 34962
        },
        {
            "buffer": 0,
            "byteOffset": 12540,
            "byteLength": 3528,
            "target": 34963
        },
        {
            "buffer": 0,
            "byteOffset": 16068,
            "byteLength": 15744,
            "byteStride": 12,
            "target": 34962
        },
        {
            "buffer": 0,
            "byteOffset": 31812,
            "byteLength": 18996,
            "target": 34963
        },
        {
            "buffer": 0,
            "byteOffset": 50808,
            "byteLength": 49656,
            "byteStride": 12,
            "target": 34962
        },
        {
            "buffer": 0,
            "byteOffset": 100464,
            "byteLength": 12564,
            "target": 34963
        },
        {
            "buffer": 0,
            "byteOffset": 113028,
            "byteLength": 39744,
            "byteStride": 12,
            "target": 34962
        },
        {
            "buffer": 0,
            "byteOffset": 152772,
            "byteLength": 5856,
            "target": 34963
        },
        {
            "buffer": 0,
            "byteOffset": 158628,
            "byteLength": 24384,
            "byteStride": 12,
            "target": 34962
        },
        {
            "buffer": 0,
            "byteOffset": 183012,
            "byteLength": 6600,
            "target": 34963
        },
        {
            "buffer": 0,
            "byteOffset": 189612,
            "byteLength": 21600,
            "byteStride": 12,
            "target": 34962
        }
    ],
    "buffers": [
        {
            "byteLength": 211212,
            "uri": "DC Power Jack 5.5mm x 2.1mm.bin"
        }
    ]
}