{
    "asset": {
        "version": "2.0"
    },
    "scene": 0,
    "scenes": [
        {
            "nodes": [
                0
            ]
        }
    ],
    "nodes": [
        {
            "children": [
                1,
                2,
                3
            ],
            "matrix": [
                0.001,
                0,
                0,
                0,
                0,
                0.001,
                0,
                0,
                0,
                0,
                0.001,
                0,
                0,
                0,
                0,
                1
            ],
            "name": "GT2_16T",
            "extras": {
                "Dtk_PrototypeID": 1
            }
        },
        {
            "mesh": 0,
            "name": "Mesh"
        },
        {
            "mesh": 1,
            "name": "Mesh"
        },
        {
            "mesh": 2,
            "name": "Mesh"
        }
    ],
    "meshes": [
        {
            "primitives": [
                {
                    "attributes": {
                        "NORMAL": 2,
                        "POSITION": 1
                    },
                    "indices": 0,
                    "material": 0,
                    "mode": 4
                }
            ]
        },
        {
            "primitives": [
                {
                    "attributes": {
                        "NORMAL": 5,
                        "POSITION": 4
                    },
                    "indices": 3,
                    "material": 0,
                    "mode": 4
                }
            ]
        },
        {
            "primitives": [
                {
                    "attributes": {
                        "NORMAL": 8,
                        "POSITION": 7
                    },
                    "indices": 6,
                    "material": 1,
                    "mode": 4
                }
            ]
        }
    ],
    "accessors": [
        {
            "bufferView": 0,
            "byteOffset": 0,
            "componentType": 5123,
            "count": 504,
            "max": [
                183
            ],
            "min": [
                0
            ],
            "type": "SCALAR"
        },
        {
            "bufferView": 1,
            "byteOffset": 0,
            "componentType": 5126,
            "count": 184,
            "max": [
                4.998648643,
                1.494596243,
                6
            ],
            "min": [
                2.001351595,
                -1.5,
                3.5
            ],
            "type": "VEC3"
        },
        {
            "bufferView": 1,
            "byteOffset": 2208,
            "componentType": 5126,
            "count": 184,
            "max": [
                0.9990989566,
                0.9963974953,
                1
            ],
            "min": [
                -0.9990989566,
                -1,
                -1
            ],
            "type": "VEC3"
        },
        {
            "bufferView": 2,
            "byteOffset": 0,
            "componentType": 5123,
            "count": 504,
            "max": [
                183
            ],
            "min": [
                0
            ],
            "type": "SCALAR"
        },
        {
            "bufferView": 3,
            "byteOffset": 0,
            "componentType": 5126,
            "count": 184,
            "max": [
                4.998648643,
                6,
                1.5
            ],
            "min": [
                2.001351595,
                3.5,
                -1.494596243
            ],
            "type": "VEC3"
        },
        {
            "bufferView": 3,
            "byteOffset": 2208,
            "componentType": 5126,
            "count": 184,
            "max": [
                0.9990989566,
                1,
                1
            ],
            "min": [
                -0.9990989566,
                -1,
                -0.9963974953
            ],
            "type": "VEC3"
        },
        {
            "bufferView": 4,
            "byteOffset": 0,
            "componentType": 5123,
            "count": 12696,
            "max": [
                4351
            ],
            "min": [
                0
            ],
            "type": "SCALAR"
        },
        {
            "bufferView": 5,
            "byteOffset": 0,
            "componentType": 5126,
            "count": 4352,
            "max": [
                15.5,
                6.949999809,
                6.949999809
            ],
            "min": [
                0,
                -6.943737984,
                -6.949999809
            ],
            "type": "VEC3"
        },
        {
            "bufferView": 5,
            "byteOffset": 52224,
            "componentType": 5126,
            "count": 4352,
            "max": [
                1,
                1,
                1
            ],
            "min": [
                -1,
                -1,
                -1
            ],
            "type": "VEC3"
        }
    ],
    "materials": [
        {
            "pbrMetallicRoughness": {
                "baseColorFactor": [
                    0.01960784314,
                    0.01960784314,
                    0.01960784314,
                    1
                ],
                "metallicFactor": 0,
                "roughnessFactor": 1
            },
            "doubleSided": true,
            "alphaMode": "OPAQUE",
            "extras": {
                "Dtk_ColorId": 3
            }
        },
        {
            "pbrMetallicRoughness": {
                "baseColorFactor": [
                    0.8941176471,
                    0.9098039216,
                    0.9294117647,
                    1
                ],
                "metallicFactor": 0,
                "roughnessFactor": 1
            },
            "doubleSided": true,
            "alphaMode": "OPAQUE",
            "extras": {
                "Dtk_ColorId": 1
            }
        }
    ],
    "bufferViews": [
        {
            "buffer": 0,
            "byteOffset": 0,
            "byteLength": 1008,
            "target": 34963
        },
        {
            "buffer": 0,
            "byteOffset": 1008,
            "byteLength": 4416,
            "byteStride": 12,
            "target": 34962
        },
        {
            "buffer": 0,
            "byteOffset": 5424,
            "byteLength": 1008,
            "target": 34963
        },
        {
            "buffer": 0,
            "byteOffset": 6432,
            "byteLength": 4416,
            "byteStride": 12,
            "target": 34962
        },
        {
            "buffer": 0,
            "byteOffset": 10848,
            "byteLength": 25392,
            "target": 34963
        },
        {
            "buffer": 0,
            "byteOffset": 36240,
            "byteLength": 104448,
            "byteStride": 12,
            "target": 34962
        }
    ],
    "buffers": [
        {
            "byteLength": 140688,
            "uri": "GT2_16T.bin"
        }
    ]
}