{
    "asset": {
        "version": "2.0"
    },
    "scene": 0,
    "scenes": [
        {
            "nodes": [
                0
            ]
        }
    ],
    "nodes": [
        {
            "children": [
                1,
                2
            ],
            "matrix": [
                0.001,
                0,
                0,
                0,
                0,
                0.001,
                0,
                0,
                0,
                0,
                0.001,
                0,
                0,
                0,
                0,
                1
            ],
            "name": "GT2_12T",
            "extras": {
                "Dtk_PrototypeID": 1
            }
        },
        {
            "mesh": 0,
            "name": "Mesh"
        },
        {
            "mesh": 1,
            "name": "Mesh"
        }
    ],
    "meshes": [
        {
            "primitives": [
                {
                    "attributes": {
                        "NORMAL": 2,
                        "POSITION": 1
                    },
                    "indices": 0,
                    "material": 0,
                    "mode": 4
                }
            ]
        },
        {
            "primitives": [
                {
                    "attributes": {
                        "POSITION": 4
                    },
                    "indices": 3,
                    "material": 1,
                    "mode": 1
                }
            ]
        }
    ],
    "accessors": [
        {
            "bufferView": 0,
            "byteOffset": 0,
            "componentType": 5123,
            "count": 9864,
            "max": [
                3375
            ],
            "min": [
                0
            ],
            "type": "SCALAR"
        },
        {
            "bufferView": 1,
            "byteOffset": 0,
            "componentType": 5126,
            "count": 3376,
            "max": [
                20,
                5,
                5
            ],
            "min": [
                -4.440892099e-16,
                -4.995494843,
                -5
            ],
            "type": "VEC3"
        },
        {
            "bufferView": 1,
            "byteOffset": 40512,
            "componentType": 5126,
            "count": 3376,
            "max": [
                1,
                1,
                1
            ],
            "min": [
                -1,
                -1,
                -1
            ],
            "type": "VEC3"
        },
        {
            "bufferView": 2,
            "byteOffset": 0,
            "componentType": 5123,
            "count": 200,
            "max": [
                117
            ],
            "min": [
                10
            ],
            "type": "SCALAR"
        },
        {
            "bufferView": 3,
            "byteOffset": 0,
            "componentType": 5126,
            "count": 118,
            "max": [
                4.997944355,
                0,
                1.499974608
            ],
            "min": [
                2.002055645,
                0,
                -1.499974608
            ],
            "type": "VEC3"
        }
    ],
    "materials": [
        {
            "pbrMetallicRoughness": {
                "baseColorFactor": [
                    0.8941176471,
                    0.9098039216,
                    0.9294117647,
                    1
                ],
                "metallicFactor": 0,
                "roughnessFactor": 1
            },
            "doubleSided": true,
            "alphaMode": "OPAQUE",
            "extras": {
                "Dtk_ColorId": 1
            }
        },
        {
            "pbrMetallicRoughness": {
                "baseColorFactor": [
                    0.5019607843,
                    0.5019607843,
                    0.5019607843,
                    1
                ],
                "metallicFactor": 0,
                "roughnessFactor": 1
            },
            "doubleSided": true,
            "alphaMode": "OPAQUE",
            "extras": {
                "Dtk_ColorId": 7
            }
        }
    ],
    "bufferViews": [
        {
            "buffer": 0,
            "byteOffset": 0,
            "byteLength": 19728,
            "target": 34963
        },
        {
            "buffer": 0,
            "byteOffset": 19728,
            "byteLength": 81024,
            "byteStride": 12,
            "target": 34962
        },
        {
            "buffer": 0,
            "byteOffset": 100752,
            "byteLength": 400,
            "target": 34963
        },
        {
            "buffer": 0,
            "byteOffset": 101152,
            "byteLength": 1416,
            "byteStride": 12,
            "target": 34962
        }
    ],
    "buffers": [
        {
            "byteLength": 102568,
            "uri": "GT2_12T.bin"
        }
    ]
}