{
    "asset": {
        "version": "2.0"
    },
    "scene": 0,
    "scenes": [
        {
            "nodes": [
                0
            ]
        }
    ],
    "nodes": [
        {
            "children": [
                1,
                2
            ],
            "matrix": [
                0.001,
                0,
                0,
                0,
                0,
                0.001,
                0,
                0,
                0,
                0,
                0.001,
                0,
                0,
                0,
                0,
                1
            ],
            "name": "GX16 4P",
            "extras": {
                "Dtk_PrototypeID": 1
            }
        },
        {
            "mesh": 0,
            "name": "Mesh"
        },
        {
            "name": "Mesh"
        }
    ],
    "meshes": [
        {
            "primitives": [
                {
                    "attributes": {
                        "NORMAL": 2,
                        "POSITION": 1
                    },
                    "indices": 0,
                    "material": 0,
                    "mode": 4
                },
                {
                    "attributes": {
                        "NORMAL": 2,
                        "POSITION": 1
                    },
                    "indices": 3,
                    "material": 1,
                    "mode": 4
                }
            ]
        }
    ],
    "accessors": [
        {
            "bufferView": 0,
            "byteOffset": 0,
            "componentType": 5123,
            "count": 36360,
            "max": [
                11334
            ],
            "min": [
                0
            ],
            "type": "SCALAR"
        },
        {
            "bufferView": 1,
            "byteOffset": 0,
            "componentType": 5126,
            "count": 11335,
            "max": [
                14,
                7.498524189,
                7.497825623
            ],
            "min": [
                -4.500000477,
                -7.5,
                -7.5
            ],
            "type": "VEC3"
        },
        {
            "bufferView": 1,
            "byteOffset": 136020,
            "componentType": 5126,
            "count": 11335,
            "max": [
                1,
                1,
                1
            ],
            "min": [
                -1,
                -1,
                -1
            ],
            "type": "VEC3"
        },
        {
            "bufferView": 0,
            "byteOffset": 72720,
            "componentType": 5123,
            "count": 1323,
            "max": [
                8158
            ],
            "min": [
                812
            ],
            "type": "SCALAR"
        }
    ],
    "materials": [
        {
            "pbrMetallicRoughness": {
                "baseColorFactor": [
                    0.7960784314,
                    0.7960784314,
                    0.7960784314,
                    1
                ],
                "metallicFactor": 0,
                "roughnessFactor": 1
            },
            "doubleSided": true,
            "alphaMode": "OPAQUE",
            "extras": {
                "Dtk_ColorId": 3
            }
        },
        {
            "pbrMetallicRoughness": {
                "baseColorFactor": [
                    0.09411764706,
                    0.09411764706,
                    0.09411764706,
                    1
                ],
                "metallicFactor": 0,
                "roughnessFactor": 1
            },
            "doubleSided": true,
            "alphaMode": "OPAQUE",
            "extras": {
                "Dtk_ColorId": 4
            }
        }
    ],
    "bufferViews": [
        {
            "buffer": 0,
            "byteOffset": 0,
            "byteLength": 75366,
            "target": 34963
        },
        {
            "buffer": 0,
            "byteOffset": 75368,
            "byteLength": 272040,
            "byteStride": 12,
            "target": 34962
        }
    ],
    "buffers": [
        {
            "byteLength": 347408,
            "uri": "GX16 4P.bin"
        }
    ]
}