{
    "asset": {
        "version": "2.0"
    },
    "scene": 0,
    "scenes": [
        {
            "nodes": [
                0
            ]
        }
    ],
    "nodes": [
        {
            "children": [
                1,
                2,
                3
            ],
            "matrix": [
                0.001,
                0,
                0,
                0,
                0,
                0.001,
                0,
                0,
                0,
                0,
                0.001,
                0,
                0,
                0,
                0,
                1
            ],
            "name": "Nema17HolderCover(2pcs)",
            "extras": {
                "Dtk_PrototypeID": 1
            }
        },
        {
            "mesh": 0,
            "name": "Mesh"
        },
        {
            "name": "Mesh"
        },
        {
            "mesh": 1,
            "name": "Mesh"
        }
    ],
    "meshes": [
        {
            "primitives": [
                {
                    "attributes": {
                        "NORMAL": 2,
                        "POSITION": 1
                    },
                    "indices": 0,
                    "material": 0,
                    "mode": 4
                }
            ]
        },
        {
            "primitives": [
                {
                    "attributes": {
                        "POSITION": 4
                    },
                    "indices": 3,
                    "material": 1,
                    "mode": 4
                }
            ]
        }
    ],
    "accessors": [
        {
            "bufferView": 0,
            "byteOffset": 0,
            "componentType": 5123,
            "count": 504,
            "max": [
                175
            ],
            "min": [
                0
            ],
            "type": "SCALAR"
        },
        {
            "bufferView": 1,
            "byteOffset": 0,
            "componentType": 5126,
            "count": 176,
            "max": [
                100000,
                48000,
                10
            ],
            "min": [
                0,
                -2.55315572e-15,
                0
            ],
            "type": "VEC3"
        },
        {
            "bufferView": 1,
            "byteOffset": 2112,
            "componentType": 5126,
            "count": 176,
            "max": [
                1,
                1,
                1
            ],
            "min": [
                -1,
                -1,
                -1
            ],
            "type": "VEC3"
        },
        {
            "bufferView": 2,
            "byteOffset": 0,
            "componentType": 5123,
            "count": 109128,
            "max": [
                36461
            ],
            "min": [
                0
            ],
            "type": "SCALAR"
        },
        {
            "bufferView": 3,
            "byteOffset": 0,
            "componentType": 5126,
            "count": 36462,
            "max": [
                99999.99219,
                48000,
                16000
            ],
            "min": [
                0,
                0,
                -6.938893904e-12
            ],
            "type": "VEC3"
        }
    ],
    "materials": [
        {
            "pbrMetallicRoughness": {
                "baseColorFactor": [
                    0.7921568627,
                    0.8196078431,
                    0.9333333333,
                    1
                ],
                "metallicFactor": 0,
                "roughnessFactor": 1
            },
            "doubleSided": true,
            "alphaMode": "OPAQUE",
            "extras": {
                "Dtk_ColorId": 1
            }
        },
        {
            "pbrMetallicRoughness": {
                "baseColorFactor": [
                    0.7960784314,
                    0.8235294118,
                    0.937254902,
                    1
                ],
                "metallicFactor": 0,
                "roughnessFactor": 1
            },
            "doubleSided": true,
            "alphaMode": "OPAQUE",
            "extras": {
                "Dtk_ColorId": 7
            }
        }
    ],
    "bufferViews": [
        {
            "buffer": 0,
            "byteOffset": 0,
            "byteLength": 1008,
            "target": 34963
        },
        {
            "buffer": 0,
            "byteOffset": 1008,
            "byteLength": 4224,
            "byteStride": 12,
            "target": 34962
        },
        {
            "buffer": 0,
            "byteOffset": 5232,
            "byteLength": 218256,
            "target": 34963
        },
        {
            "buffer": 0,
            "byteOffset": 223488,
            "byteLength": 437544,
            "byteStride": 12,
            "target": 34962
        }
    ],
    "buffers": [
        {
            "byteLength": 661032,
            "uri": "Nema17HolderCover(2pcs).bin"
        }
    ]
}