{
    "asset": {
        "version": "2.0"
    },
    "scene": 0,
    "scenes": [
        {
            "nodes": [
                0
            ]
        }
    ],
    "nodes": [
        {
            "children": [
                1
            ],
            "matrix": [
                0.001,
                0,
                0,
                0,
                0,
                0.001,
                0,
                0,
                0,
                0,
                0.001,
                0,
                0,
                0,
                0,
                1
            ],
            "name": "Nema17Cover",
            "extras": {
                "Dtk_PrototypeID": 1
            }
        },
        {
            "mesh": 0,
            "name": "Mesh"
        }
    ],
    "meshes": [
        {
            "primitives": [
                {
                    "attributes": {
                        "NORMAL": 2,
                        "POSITION": 1
                    },
                    "indices": 0,
                    "material": 0,
                    "mode": 4
                }
            ]
        }
    ],
    "accessors": [
        {
            "bufferView": 0,
            "byteOffset": 0,
            "componentType": 5123,
            "count": 3810,
            "max": [
                1325
            ],
            "min": [
                0
            ],
            "type": "SCALAR"
        },
        {
            "bufferView": 1,
            "byteOffset": 0,
            "componentType": 5126,
            "count": 1326,
            "max": [
                93,
                69,
                48.5
            ],
            "min": [
                0,
                -4.440892099e-16,
                0
            ],
            "type": "VEC3"
        },
        {
            "bufferView": 1,
            "byteOffset": 15912,
            "componentType": 5126,
            "count": 1326,
            "max": [
                1,
                1,
                1
            ],
            "min": [
                -1,
                -1,
                -1
            ],
            "type": "VEC3"
        }
    ],
    "materials": [
        {
            "pbrMetallicRoughness": {
                "baseColorFactor": [
                    0.2509803922,
                    0.2509803922,
                    0.2509803922,
                    1
                ],
                "metallicFactor": 0,
                "roughnessFactor": 1
            },
            "doubleSided": true,
            "alphaMode": "OPAQUE",
            "extras": {
                "Dtk_ColorId": 1
            }
        }
    ],
    "bufferViews": [
        {
            "buffer": 0,
            "byteOffset": 0,
            "byteLength": 7620,
            "target": 34963
        },
        {
            "buffer": 0,
            "byteOffset": 7620,
            "byteLength": 31824,
            "byteStride": 12,
            "target": 34962
        }
    ],
    "buffers": [
        {
            "byteLength": 39444,
            "uri": "Nema17Cover.bin"
        }
    ]
}