{
    "asset": {
        "version": "2.0"
    },
    "scene": 0,
    "scenes": [
        {
            "nodes": [
                0
            ]
        }
    ],
    "nodes": [
        {
            "children": [
                1,
                2,
                3
            ],
            "matrix": [
                0.001,
                0,
                0,
                0,
                0,
                0.001,
                0,
                0,
                0,
                0,
                0.001,
                0,
                0,
                0,
                0,
                1
            ],
            "name": "Part3",
            "extras": {
                "Dtk_PrototypeID": 1
            }
        },
        {
            "mesh": 0,
            "name": "Mesh"
        },
        {
            "mesh": 1,
            "name": "Mesh"
        },
        {
            "mesh": 2,
            "name": "Mesh"
        }
    ],
    "meshes": [
        {
            "primitives": [
                {
                    "attributes": {
                        "NORMAL": 2,
                        "POSITION": 1
                    },
                    "indices": 0,
                    "material": 0,
                    "mode": 4
                }
            ]
        },
        {
            "primitives": [
                {
                    "attributes": {
                        "NORMAL": 5,
                        "POSITION": 4
                    },
                    "indices": 3,
                    "material": 0,
                    "mode": 4
                }
            ]
        },
        {
            "primitives": [
                {
                    "attributes": {
                        "POSITION": 7
                    },
                    "indices": 6,
                    "material": 1,
                    "mode": 1
                }
            ]
        }
    ],
    "accessors": [
        {
            "bufferView": 0,
            "byteOffset": 0,
            "componentType": 5123,
            "count": 2316,
            "max": [
                759
            ],
            "min": [
                0
            ],
            "type": "SCALAR"
        },
        {
            "bufferView": 1,
            "byteOffset": 0,
            "componentType": 5126,
            "count": 760,
            "max": [
                188,
                57.80189896,
                10
            ],
            "min": [
                72,
                -57.80189896,
                0
            ],
            "type": "VEC3"
        },
        {
            "bufferView": 1,
            "byteOffset": 9120,
            "componentType": 5126,
            "count": 760,
            "max": [
                1,
                0.9966037273,
                1
            ],
            "min": [
                -1,
                -0.99660182,
                -1
            ],
            "type": "VEC3"
        },
        {
            "bufferView": 2,
            "byteOffset": 0,
            "componentType": 5123,
            "count": 2316,
            "max": [
                759
            ],
            "min": [
                0
            ],
            "type": "SCALAR"
        },
        {
            "bufferView": 3,
            "byteOffset": 0,
            "componentType": 5126,
            "count": 760,
            "max": [
                58,
                57.80189896,
                10
            ],
            "min": [
                -58,
                -57.80189896,
                0
            ],
            "type": "VEC3"
        },
        {
            "bufferView": 3,
            "byteOffset": 9120,
            "componentType": 5126,
            "count": 760,
            "max": [
                1,
                0.9966037273,
                1
            ],
            "min": [
                -1,
                -0.9966037273,
                -1
            ],
            "type": "VEC3"
        },
        {
            "bufferView": 4,
            "byteOffset": 0,
            "componentType": 5123,
            "count": 2,
            "max": [
                5
            ],
            "min": [
                4
            ],
            "type": "SCALAR"
        },
        {
            "bufferView": 5,
            "byteOffset": 0,
            "componentType": 5126,
            "count": 6,
            "max": [
                42.5,
                0,
                10
            ],
            "min": [
                -42.5,
                0,
                10
            ],
            "type": "VEC3"
        }
    ],
    "materials": [
        {
            "pbrMetallicRoughness": {
                "baseColorFactor": [
                    0.7921568627,
                    0.8196078431,
                    0.9333333333,
                    1
                ],
                "metallicFactor": 0,
                "roughnessFactor": 1
            },
            "doubleSided": true,
            "alphaMode": "OPAQUE",
            "extras": {
                "Dtk_ColorId": 1
            }
        },
        {
            "pbrMetallicRoughness": {
                "baseColorFactor": [
                    0.5019607843,
                    0.5019607843,
                    0.5019607843,
                    1
                ],
                "metallicFactor": 0,
                "roughnessFactor": 1
            },
            "doubleSided": true,
            "alphaMode": "OPAQUE",
            "extras": {
                "Dtk_ColorId": 7
            }
        }
    ],
    "bufferViews": [
        {
            "buffer": 0,
            "byteOffset": 0,
            "byteLength": 4632,
            "target": 34963
        },
        {
            "buffer": 0,
            "byteOffset": 4632,
            "byteLength": 18240,
            "byteStride": 12,
            "target": 34962
        },
        {
            "buffer": 0,
            "byteOffset": 22872,
            "byteLength": 4632,
            "target": 34963
        },
        {
            "buffer": 0,
            "byteOffset": 27504,
            "byteLength": 18240,
            "byteStride": 12,
            "target": 34962
        },
        {
            "buffer": 0,
            "byteOffset": 45744,
            "byteLength": 4,
            "target": 34963
        },
        {
            "buffer": 0,
            "byteOffset": 45748,
            "byteLength": 72,
            "byteStride": 12,
            "target": 34962
        }
    ],
    "buffers": [
        {
            "byteLength": 45820,
            "uri": "Part3.bin"
        }
    ]
}