{
    "asset": {
        "version": "2.0"
    },
    "scene": 0,
    "scenes": [
        {
            "nodes": [
                0
            ]
        }
    ],
    "nodes": [
        {
            "children": [
                1,
                2,
                3
            ],
            "matrix": [
                0.001,
                0,
                0,
                0,
                0,
                0.001,
                0,
                0,
                0,
                0,
                0.001,
                0,
                0,
                0,
                0,
                1
            ],
            "name": "ProtectCover115",
            "extras": {
                "Dtk_PrototypeID": 1
            }
        },
        {
            "mesh": 0,
            "name": "Mesh"
        },
        {
            "mesh": 1,
            "name": "Mesh"
        },
        {
            "mesh": 2,
            "name": "Mesh"
        }
    ],
    "meshes": [
        {
            "primitives": [
                {
                    "attributes": {
                        "NORMAL": 2,
                        "POSITION": 1
                    },
                    "indices": 0,
                    "material": 0,
                    "mode": 4
                }
            ]
        },
        {
            "primitives": [
                {
                    "attributes": {
                        "NORMAL": 5,
                        "POSITION": 4
                    },
                    "indices": 3,
                    "material": 0,
                    "mode": 4
                }
            ]
        },
        {
            "primitives": [
                {
                    "attributes": {
                        "NORMAL": 8,
                        "POSITION": 7
                    },
                    "indices": 6,
                    "material": 0,
                    "mode": 4
                }
            ]
        }
    ],
    "accessors": [
        {
            "bufferView": 0,
            "byteOffset": 0,
            "componentType": 5123,
            "count": 348,
            "max": [
                133
            ],
            "min": [
                0
            ],
            "type": "SCALAR"
        },
        {
            "bufferView": 1,
            "byteOffset": 0,
            "componentType": 5126,
            "count": 134,
            "max": [
                6.782338619,
                3.660581589,
                -105.3563919
            ],
            "min": [
                0.9387272596,
                -3.339418411,
                -111.1999969
            ],
            "type": "VEC3"
        },
        {
            "bufferView": 1,
            "byteOffset": 1608,
            "componentType": 5126,
            "count": 134,
            "max": [
                1,
                1,
                0.9398990273
            ],
            "min": [
                -0.9398989677,
                -1,
                -1
            ],
            "type": "VEC3"
        },
        {
            "bufferView": 2,
            "byteOffset": 0,
            "componentType": 5123,
            "count": 348,
            "max": [
                133
            ],
            "min": [
                0
            ],
            "type": "SCALAR"
        },
        {
            "bufferView": 3,
            "byteOffset": 0,
            "componentType": 5126,
            "count": 134,
            "max": [
                6.782338619,
                3.660581589,
                -2.799999952
            ],
            "min": [
                0.9387272596,
                -3.339418411,
                -8.643610954
            ],
            "type": "VEC3"
        },
        {
            "bufferView": 3,
            "byteOffset": 1608,
            "componentType": 5126,
            "count": 134,
            "max": [
                1,
                1,
                1
            ],
            "min": [
                -0.9398990273,
                -1,
                -0.9398989677
            ],
            "type": "VEC3"
        },
        {
            "bufferView": 4,
            "byteOffset": 0,
            "componentType": 5123,
            "count": 6144,
            "max": [
                2091
            ],
            "min": [
                0
            ],
            "type": "SCALAR"
        },
        {
            "bufferView": 5,
            "byteOffset": 0,
            "componentType": 5126,
            "count": 2092,
            "max": [
                9.582338333,
                37.66057968,
                0
            ],
            "min": [
                -94.41766357,
                -3.339418411,
                -123
            ],
            "type": "VEC3"
        },
        {
            "bufferView": 5,
            "byteOffset": 25104,
            "componentType": 5126,
            "count": 2092,
            "max": [
                1,
                1,
                1
            ],
            "min": [
                -1,
                -1,
                -1
            ],
            "type": "VEC3"
        }
    ],
    "materials": [
        {
            "pbrMetallicRoughness": {
                "baseColorFactor": [
                    0.4392156863,
                    0.4392156863,
                    0.4392156863,
                    1
                ],
                "metallicFactor": 0,
                "roughnessFactor": 1
            },
            "doubleSided": true,
            "alphaMode": "OPAQUE",
            "extras": {
                "Dtk_ColorId": 1
            }
        }
    ],
    "bufferViews": [
        {
            "buffer": 0,
            "byteOffset": 0,
            "byteLength": 696,
            "target": 34963
        },
        {
            "buffer": 0,
            "byteOffset": 696,
            "byteLength": 3216,
            "byteStride": 12,
            "target": 34962
        },
        {
            "buffer": 0,
            "byteOffset": 3912,
            "byteLength": 696,
            "target": 34963
        },
        {
            "buffer": 0,
            "byteOffset": 4608,
            "byteLength": 3216,
            "byteStride": 12,
            "target": 34962
        },
        {
            "buffer": 0,
            "byteOffset": 7824,
            "byteLength": 12288,
            "target": 34963
        },
        {
            "buffer": 0,
            "byteOffset": 20112,
            "byteLength": 50208,
            "byteStride": 12,
            "target": 34962
        }
    ],
    "buffers": [
        {
            "byteLength": 70320,
            "uri": "ProtectCover115.bin"
        }
    ]
}