{
    "asset": {
        "version": "2.0"
    },
    "scene": 0,
    "scenes": [
        {
            "nodes": [
                0
            ]
        }
    ],
    "nodes": [
        {
            "children": [
                1,
                2,
                3,
                4,
                5
            ],
            "matrix": [
                0.001,
                0,
                0,
                0,
                0,
                0.001,
                0,
                0,
                0,
                0,
                0.001,
                0,
                0,
                0,
                0,
                1
            ],
            "name": "Stepper Motor Flexible Coupling 6,35 x 8 mm",
            "extras": {
                "Dtk_PrototypeID": 1
            }
        },
        {
            "mesh": 0,
            "name": "Mesh"
        },
        {
            "mesh": 1,
            "name": "Mesh"
        },
        {
            "mesh": 2,
            "name": "Mesh"
        },
        {
            "mesh": 3,
            "name": "Mesh"
        },
        {
            "mesh": 4,
            "name": "Mesh"
        }
    ],
    "meshes": [
        {
            "primitives": [
                {
                    "attributes": {
                        "NORMAL": 2,
                        "POSITION": 1
                    },
                    "indices": 0,
                    "material": 0,
                    "mode": 4
                }
            ]
        },
        {
            "primitives": [
                {
                    "attributes": {
                        "NORMAL": 5,
                        "POSITION": 4
                    },
                    "indices": 3,
                    "material": 0,
                    "mode": 4
                }
            ]
        },
        {
            "primitives": [
                {
                    "attributes": {
                        "NORMAL": 8,
                        "POSITION": 7
                    },
                    "indices": 6,
                    "material": 0,
                    "mode": 4
                }
            ]
        },
        {
            "primitives": [
                {
                    "attributes": {
                        "NORMAL": 11,
                        "POSITION": 10
                    },
                    "indices": 9,
                    "material": 0,
                    "mode": 4
                }
            ]
        },
        {
            "primitives": [
                {
                    "attributes": {
                        "NORMAL": 14,
                        "POSITION": 13
                    },
                    "indices": 12,
                    "material": 1,
                    "mode": 4
                }
            ]
        }
    ],
    "accessors": [
        {
            "bufferView": 0,
            "byteOffset": 0,
            "componentType": 5123,
            "count": 744,
            "max": [
                262
            ],
            "min": [
                0
            ],
            "type": "SCALAR"
        },
        {
            "bufferView": 1,
            "byteOffset": 0,
            "componentType": 5126,
            "count": 263,
            "max": [
                2.064655304,
                10.05431271,
                10.49845886
            ],
            "min": [
                -1.951174855,
                5.043628693,
                6.500536919
            ],
            "type": "VEC3"
        },
        {
            "bufferView": 1,
            "byteOffset": 3156,
            "componentType": 5126,
            "count": 263,
            "max": [
                0.9992791414,
                0.9999773502,
                0.9993017912
            ],
            "min": [
                -0.999279201,
                -0.7118455172,
                -0.9999870658
            ],
            "type": "VEC3"
        },
        {
            "bufferView": 2,
            "byteOffset": 0,
            "componentType": 5123,
            "count": 744,
            "max": [
                262
            ],
            "min": [
                0
            ],
            "type": "SCALAR"
        },
        {
            "bufferView": 3,
            "byteOffset": 0,
            "componentType": 5126,
            "count": 263,
            "max": [
                2.064228058,
                10.05430984,
                -6.500511169
            ],
            "min": [
                -1.950747609,
                5.043628693,
                -10.49891376
            ],
            "type": "VEC3"
        },
        {
            "bufferView": 3,
            "byteOffset": 3156,
            "componentType": 5126,
            "count": 263,
            "max": [
                0.9990870357,
                0.9999773502,
                0.9999999404
            ],
            "min": [
                -0.999065578,
                -0.7118466496,
                -0.9992014766
            ],
            "type": "VEC3"
        },
        {
            "bufferView": 4,
            "byteOffset": 0,
            "componentType": 5123,
            "count": 744,
            "max": [
                262
            ],
            "min": [
                0
            ],
            "type": "SCALAR"
        },
        {
            "bufferView": 5,
            "byteOffset": 0,
            "componentType": 5126,
            "count": 263,
            "max": [
                10.39201069,
                1.948672771,
                10.5005064
            ],
            "min": [
                5.381259918,
                -2.067053795,
                6.502721786
            ],
            "type": "VEC3"
        },
        {
            "bufferView": 5,
            "byteOffset": 3156,
            "componentType": 5126,
            "count": 263,
            "max": [
                0.9999773502,
                0.9993417859,
                0.999997735
            ],
            "min": [
                -0.7118461728,
                -0.9993417859,
                -0.9988948107
            ],
            "type": "VEC3"
        },
        {
            "bufferView": 6,
            "byteOffset": 0,
            "componentType": 5123,
            "count": 744,
            "max": [
                262
            ],
            "min": [
                0
            ],
            "type": "SCALAR"
        },
        {
            "bufferView": 7,
            "byteOffset": 0,
            "componentType": 5126,
            "count": 263,
            "max": [
                10.39201736,
                1.94638896,
                -6.504712582
            ],
            "min": [
                5.381269455,
                -2.068325043,
                -10.50010777
            ],
            "type": "VEC3"
        },
        {
            "bufferView": 7,
            "byteOffset": 3156,
            "componentType": 5126,
            "count": 263,
            "max": [
                0.9999773502,
                0.9999773502,
                0.9978992343
            ],
            "min": [
                -0.7118496895,
                -0.9999773502,
                -0.9997984767
            ],
            "type": "VEC3"
        },
        {
            "bufferView": 8,
            "byteOffset": 0,
            "componentType": 5123,
            "count": 9432,
            "max": [
                3151
            ],
            "min": [
                0
            ],
            "type": "SCALAR"
        },
        {
            "bufferView": 9,
            "byteOffset": 0,
            "componentType": 5126,
            "count": 3152,
            "max": [
                9.5,
                9.499586105,
                12.5
            ],
            "min": [
                -9.5,
                -9.497848511,
                -12.5
            ],
            "type": "VEC3"
        },
        {
            "bufferView": 9,
            "byteOffset": 37824,
            "componentType": 5126,
            "count": 3152,
            "max": [
                1,
                1,
                1
            ],
            "min": [
                -1,
                -1,
                -1
            ],
            "type": "VEC3"
        }
    ],
    "materials": [
        {
            "pbrMetallicRoughness": {
                "baseColorFactor": [
                    1,
                    0.9490196078,
                    0.9098039216,
                    1
                ],
                "metallicFactor": 0,
                "roughnessFactor": 1
            },
            "doubleSided": true,
            "alphaMode": "OPAQUE",
            "extras": {
                "Dtk_ColorId": 4
            }
        },
        {
            "pbrMetallicRoughness": {
                "baseColorFactor": [
                    0.8980392157,
                    0.9176470588,
                    0.9294117647,
                    1
                ],
                "metallicFactor": 0,
                "roughnessFactor": 1
            },
            "doubleSided": true,
            "alphaMode": "OPAQUE",
            "extras": {
                "Dtk_ColorId": 2
            }
        }
    ],
    "bufferViews": [
        {
            "buffer": 0,
            "byteOffset": 0,
            "byteLength": 1488,
            "target": 34963
        },
        {
            "buffer": 0,
            "byteOffset": 1488,
            "byteLength": 6312,
            "byteStride": 12,
            "target": 34962
        },
        {
            "buffer": 0,
            "byteOffset": 7800,
            "byteLength": 1488,
            "target": 34963
        },
        {
            "buffer": 0,
            "byteOffset": 9288,
            "byteLength": 6312,
            "byteStride": 12,
            "target": 34962
        },
        {
            "buffer": 0,
            "byteOffset": 15600,
            "byteLength": 1488,
            "target": 34963
        },
        {
            "buffer": 0,
            "byteOffset": 17088,
            "byteLength": 6312,
            "byteStride": 12,
            "target": 34962
        },
        {
            "buffer": 0,
            "byteOffset": 23400,
            "byteLength": 1488,
            "target": 34963
        },
        {
            "buffer": 0,
            "byteOffset": 24888,
            "byteLength": 6312,
            "byteStride": 12,
            "target": 34962
        },
        {
            "buffer": 0,
            "byteOffset": 31200,
            "byteLength": 18864,
            "target": 34963
        },
        {
            "buffer": 0,
            "byteOffset": 50064,
            "byteLength": 75648,
            "byteStride": 12,
            "target": 34962
        }
    ],
    "buffers": [
        {
            "byteLength": 125712,
            "uri": "Stepper Motor Flexible Coupling 6,35 x 8 mm.bin"
        }
    ]
}