{
    "asset": {
        "version": "2.0"
    },
    "scene": 0,
    "scenes": [
        {
            "nodes": [
                0
            ]
        }
    ],
    "nodes": [
        {
            "children": [
                1,
                2,
                3
            ],
            "matrix": [
                0.001,
                0,
                0,
                0,
                0,
                0.001,
                0,
                0,
                0,
                0,
                0.001,
                0,
                0,
                0,
                0,
                1
            ],
            "name": "Вилка левая 2шт",
            "extras": {
                "Dtk_PrototypeID": 1
            }
        },
        {
            "mesh": 0,
            "name": "Mesh"
        },
        {
            "mesh": 1,
            "name": "Mesh"
        },
        {
            "name": "Mesh"
        }
    ],
    "meshes": [
        {
            "primitives": [
                {
                    "attributes": {
                        "NORMAL": 2,
                        "POSITION": 1
                    },
                    "indices": 0,
                    "material": 0,
                    "mode": 4
                }
            ]
        },
        {
            "primitives": [
                {
                    "attributes": {
                        "NORMAL": 5,
                        "POSITION": 4
                    },
                    "indices": 3,
                    "material": 0,
                    "mode": 4
                }
            ]
        }
    ],
    "accessors": [
        {
            "bufferView": 0,
            "byteOffset": 0,
            "componentType": 5123,
            "count": 6954,
            "max": [
                2379
            ],
            "min": [
                0
            ],
            "type": "SCALAR"
        },
        {
            "bufferView": 1,
            "byteOffset": 0,
            "componentType": 5126,
            "count": 2380,
            "max": [
                225.7836761,
                299.5461121,
                -66.3897171
            ],
            "min": [
                54.76322937,
                128.9740448,
                -104.0372772
            ],
            "type": "VEC3"
        },
        {
            "bufferView": 1,
            "byteOffset": 28560,
            "componentType": 5126,
            "count": 2380,
            "max": [
                0.9992388487,
                0.9942806959,
                0.994282186
            ],
            "min": [
                -0.9997899532,
                -0.9942861795,
                -0.994282186
            ],
            "type": "VEC3"
        },
        {
            "bufferView": 2,
            "byteOffset": 0,
            "componentType": 5123,
            "count": 6954,
            "max": [
                2379
            ],
            "min": [
                0
            ],
            "type": "SCALAR"
        },
        {
            "bufferView": 3,
            "byteOffset": 0,
            "componentType": 5126,
            "count": 2380,
            "max": [
                172.4367065,
                133.4541931,
                -84.3132019
            ],
            "min": [
                1.416258097,
                -38.08891296,
                -114.5364227
            ],
            "type": "VEC3"
        },
        {
            "bufferView": 3,
            "byteOffset": 28560,
            "componentType": 5126,
            "count": 2380,
            "max": [
                0.9997899532,
                0.9942861795,
                0.994282186
            ],
            "min": [
                -0.9992388487,
                -0.9942806959,
                -0.994282186
            ],
            "type": "VEC3"
        }
    ],
    "materials": [
        {
            "pbrMetallicRoughness": {
                "baseColorFactor": [
                    0.9254901961,
                    0.9254901961,
                    0.9254901961,
                    1
                ],
                "metallicFactor": 0,
                "roughnessFactor": 1
            },
            "doubleSided": true,
            "alphaMode": "OPAQUE",
            "extras": {
                "Dtk_ColorId": 3
            }
        }
    ],
    "bufferViews": [
        {
            "buffer": 0,
            "byteOffset": 0,
            "byteLength": 13908,
            "target": 34963
        },
        {
            "buffer": 0,
            "byteOffset": 13908,
            "byteLength": 57120,
            "byteStride": 12,
            "target": 34962
        },
        {
            "buffer": 0,
            "byteOffset": 71028,
            "byteLength": 13908,
            "target": 34963
        },
        {
            "buffer": 0,
            "byteOffset": 84936,
            "byteLength": 57120,
            "byteStride": 12,
            "target": 34962
        }
    ],
    "buffers": [
        {
            "byteLength": 142056,
            "uri": "Вилка левая 2шт.bin"
        }
    ]
}